<?xml version="1.0" encoding="UTF-8"?>
<svg version="1.1" xmlns="http://www.w3.org/2000/svg" width="64" height="64">
<path d="M0 0 C21.12 0 42.24 0 64 0 C64 21.12 64 42.24 64 64 C42.88 64 21.76 64 0 64 C0 42.88 0 21.76 0 0 Z " fill="#090909" transform="translate(0,0)"/>
<path d="M0 0 C21.12 0 42.24 0 64 0 C64 8.58 64 17.16 64 26 C60.1273408 26.9681648 56.96388638 27.07622858 53 27 C52.34 28.32 51.68 29.64 51 31 C50.34 31 49.68 31 49 31 C47.68373308 27.38026598 47 24.90432869 47 21 C45.35 21 43.7 21 42 21 C42.144375 21.72445313 42.28875 22.44890625 42.4375 23.1953125 C44.56140351 34.25730994 44.56140351 34.25730994 44 38 C42.1875 39.875 42.1875 39.875 40 41 C39.01 41 38.02 41 37 41 C34.97441119 37.65060119 34.78261013 35.13037449 34.875 31.25 C34.89304688 30.26515625 34.91109375 29.2803125 34.9296875 28.265625 C34.95289063 27.51796875 34.97609375 26.7703125 35 26 C33.68 26.33 32.36 26.66 31 27 C30.95101563 27.84304687 30.90203125 28.68609375 30.8515625 29.5546875 C30.77679687 30.65039062 30.70203125 31.74609375 30.625 32.875 C30.55539063 33.96554688 30.48578125 35.05609375 30.4140625 36.1796875 C30 39 30 39 28 41 C25.5 41.3125 25.5 41.3125 23 41 C20.49061855 37.23592783 20.4985286 34.35335317 21 30 C21.83514528 26.60631716 22.86265514 23.30371603 24 20 C21.52372901 20.63921965 21.52372901 20.63921965 19 22 C18.31246699 23.65816784 17.64438717 25.32459336 17 27 C14.875 27.8125 14.875 27.8125 13 28 C13 27.34 13 26.68 13 26 C8.71 25.67 4.42 25.34 0 25 C0 16.75 0 8.5 0 0 Z " fill="#090909" transform="translate(0,0)"/>
<path d="M0 0 C-0.144375 0.6290625 -0.28875 1.258125 -0.4375 1.90625 C-2.67895806 11.0594956 -2.67895806 11.0594956 -1 20 C0.66611905 20.042721 2.33382885 20.04063832 4 20 C5.81115956 18.18884044 5.38199448 15.38721773 5.5625 12.9375 C5.64628906 11.83277344 5.73007812 10.72804688 5.81640625 9.58984375 C5.87699219 8.73519531 5.93757813 7.88054688 6 7 C7.65 6.67 9.3 6.34 11 6 C11.06058594 6.74765625 11.12117188 7.4953125 11.18359375 8.265625 C11.30927734 9.74289063 11.30927734 9.74289063 11.4375 11.25 C11.51871094 12.22453125 11.59992187 13.1990625 11.68359375 14.203125 C11.95074584 16.56461753 12.35371968 18.71901065 13 21 C14.98 20.01 16.96 19.02 19 18 C18.67 12.39 18.34 6.78 18 1 C19.65 1 21.3 1 23 1 C25.32700723 7.0502188 27.25017647 13.60858169 24.8125 19.875 C22.99788034 23.00365459 22.09957761 24.2674156 19 26 C15.9765625 26.00390625 15.9765625 26.00390625 12.625 25.5625 C7.65914287 24.91705487 4.70441103 25.42129603 0 27 C-2.73046875 26.9140625 -2.73046875 26.9140625 -5 26 C-8.43273146 20.86565666 -9.52697546 15.06021774 -9 9 C-8.34 9 -7.68 9 -7 9 C-7.0928125 7.6078125 -7.0928125 7.6078125 -7.1875 6.1875 C-7 3 -7 3 -5.75 1.125 C-4 0 -4 0 0 0 Z " fill="#E8E8E8" transform="translate(24,20)"/>
<path d="M0 0 C0.33 0.66 0.66 1.32 1 2 C3.52733235 2.65555119 3.52733235 2.65555119 6 3 C6 4.98 6 6.96 6 9 C6.66 9 7.32 9 8 9 C8 7.68 8 6.36 8 5 C9.65 5 11.3 5 13 5 C12.01 6.485 12.01 6.485 11 8 C12.65 8.33 14.3 8.66 16 9 C16 9.66 16 10.32 16 11 C16.99 11.33 17.98 11.66 19 12 C17.79618552 14.49361571 16.54571278 16.68143083 15 19 C11.92078868 19.25660094 9.78863007 19.39431504 7 18 C7.33 18.99 7.66 19.98 8 21 C5.36 21 2.72 21 0 21 C0 14.07 0 7.14 0 0 Z " fill="#030303" transform="translate(0,43)"/>
<path d="M0 0 C1.32 0.66 2.64 1.32 4 2 C4 1.34 4 0.68 4 0 C4.99 0 5.98 0 7 0 C6.67 1.32 6.34 2.64 6 4 C5.01 4 4.02 4 3 4 C3.144375 4.72445313 3.28875 5.44890625 3.4375 6.1953125 C5.56140351 17.25730994 5.56140351 17.25730994 5 21 C3.1875 22.875 3.1875 22.875 1 24 C0.01 24 -0.98 24 -2 24 C-4.15059309 20.46813168 -4.3797728 17.33712007 -4.625 13.25 C-4.69976562 12.07953125 -4.77453125 10.9090625 -4.8515625 9.703125 C-4.90054688 8.81109375 -4.94953125 7.9190625 -5 7 C-2.92446352 6.4465236 -1.15634036 6 1 6 C0.67 4.02 0.34 2.04 0 0 Z " fill="#141414" transform="translate(39,17)"/>
<path d="M0 0 C1.588125 -0.020625 3.17625 -0.04125 4.8125 -0.0625 C5.70582031 -0.07410156 6.59914063 -0.08570312 7.51953125 -0.09765625 C10 0 10 0 13 1 C13 4.3 13 7.6 13 11 C4.5 13.125 4.5 13.125 0 12 C0 8.04 0 4.08 0 0 Z " fill="#EAEAEA" transform="translate(0,25)"/>
<path d="M0 0 C0.99 0.33 1.98 0.66 3 1 C3.33 2.65 3.66 4.3 4 6 C4.99 6.33 5.98 6.66 7 7 C7.1953125 13.0546875 7.1953125 13.0546875 7 15 C5 17 5 17 2.5 17.3125 C1.675 17.209375 0.85 17.10625 0 17 C-2.48421811 13.27367284 -2.42240263 10.31338065 -2 6 C-1 2.5 -1 2.5 0 0 Z " fill="#131313" transform="translate(23,24)"/>
<path d="M0 0 C0 3.3 0 6.6 0 10 C-7.71484375 10.09765625 -7.71484375 10.09765625 -10 10 C-11 9 -11 9 -11.09765625 7.15234375 C-11.06510417 5.1015625 -11.03255208 3.05078125 -11 1 C-7.26513121 0.4254048 -3.78706732 0 0 0 Z " fill="#F3F3F3" transform="translate(64,26)"/>
<path d="M0 0 C0.33 1.98 0.66 3.96 1 6 C3.64 6.33 6.28 6.66 9 7 C8.360625 7.2475 7.72125 7.495 7.0625 7.75 C4.81258459 8.81562433 4.81258459 8.81562433 4.25 11.125 C4.1675 11.74375 4.085 12.3625 4 13 C3.34 13 2.68 13 2 13 C2 12.34 2 11.68 2 11 C-0.89932357 13.39509338 -1.50168276 15.31245243 -2 19 C-2.99 19 -3.98 19 -5 19 C-6.6875 17 -6.6875 17 -8 15 C-7.525625 14.525625 -7.05125 14.05125 -6.5625 13.5625 C-4.59391415 10.33401921 -4.55473896 7.7480355 -4.40625 4.0234375 C-3.919802 1.60055224 -2.81782183 0 0 0 Z " fill="#1F1F1F" transform="translate(53,29)"/>
<path d="M0 0 C0.66 0 1.32 0 2 0 C2 0.66 2 1.32 2 2 C2.99 2.33 3.98 2.66 5 3 C5 4.65 5 6.3 5 8 C0.38 8 -4.24 8 -9 8 C-9.33 7.01 -9.66 6.02 -10 5 C-7.36 5 -4.72 5 -2 5 C-1.34 3.35 -0.68 1.7 0 0 Z " fill="#161616" transform="translate(17,56)"/>
<path d="M0 0 C1.32 0.66 2.64 1.32 4 2 C4 1.34 4 0.68 4 0 C4.99 0 5.98 0 7 0 C6.67 1.32 6.34 2.64 6 4 C5.01 4 4.02 4 3 4 C3 5.32 3 6.64 3 8 C1.68 8.33 0.36 8.66 -1 9 C-0.34 9.66 0.32 10.32 1 11 C1 11.99 1 12.98 1 14 C-0.32 13.67 -1.64 13.34 -3 13 C-3.33 13.66 -3.66 14.32 -4 15 C-4.33 12.36 -4.66 9.72 -5 7 C-2.92446352 6.4465236 -1.15634036 6 1 6 C0.67 4.02 0.34 2.04 0 0 Z " fill="#3C3C3C" transform="translate(39,17)"/>
<path d="M0 0 C0.99 0.33 1.98 0.66 3 1 C3.33 2.65 3.66 4.3 4 6 C4.99 6.33 5.98 6.66 7 7 C7 8.98 7 10.96 7 13 C6.67 12.01 6.34 11.02 6 10 C3.36 9.67 0.72 9.34 -2 9 C-1.125 1.125 -1.125 1.125 0 0 Z " fill="#282828" transform="translate(23,24)"/>
<path d="M0 0 C0.66 0.33 1.32 0.66 2 1 C2 1.66 2 2.32 2 3 C1.34 3 0.68 3 0 3 C0.165 4.093125 0.33 5.18625 0.5 6.3125 C1 10 1 10 1 13 C-0.65 13.33 -2.3 13.66 -4 14 C-4 13.34 -4 12.68 -4 12 C-6.31 12.33 -8.62 12.66 -11 13 C-8.23776722 10.23776722 -5.79293383 10.42143709 -2 10 C-2.04125 8.72125 -2.0825 7.4425 -2.125 6.125 C-2.1953125 3.9453125 -2.1953125 3.9453125 -2 2 C-1.34 1.34 -0.68 0.68 0 0 Z " fill="#2F2F2F" transform="translate(15,26)"/>
<path d="M0 0 C-0.99 0.99 -1.98 1.98 -3 3 C-3.99 2.67 -4.98 2.34 -6 2 C-6.33 3.32 -6.66 4.64 -7 6 C-8.98 6.33 -10.96 6.66 -13 7 C-13.33 6.01 -13.66 5.02 -14 4 C-13.01 3.34 -12.02 2.68 -11 2 C-10.67 1.01 -10.34 0.02 -10 -1 C-6.36375521 -2.75078453 -3.58607386 -1.38552854 0 0 Z " fill="#252525" transform="translate(24,46)"/>
<path d="M0 0 C0.66 0 1.32 0 2 0 C2.66 1.65 3.32 3.3 4 5 C3.34 5 2.68 5 2 5 C2 4.34 2 3.68 2 3 C1.01 3 0.02 3 -1 3 C-1.33 4.32 -1.66 5.64 -2 7 C-2.99 7 -3.98 7 -5 7 C-5 7.66 -5 8.32 -5 9 C-5.66 9 -6.32 9 -7 9 C-6.67 6.69 -6.34 4.38 -6 2 C-4.02 2 -2.04 2 0 2 C0 1.34 0 0.68 0 0 Z " fill="#383838" transform="translate(7,5)"/>
<path d="M0 0 C1.9375 0.8125 1.9375 0.8125 4 2 C5.2077558 5.62326739 4.54311128 6.64146369 3 10 C2.01 9.67 1.02 9.34 0 9 C-1.125 2.25 -1.125 2.25 0 0 Z " fill="#060606" transform="translate(36,30)"/>
<path d="M0 0 C0.99 0 1.98 0 3 0 C3 0.66 3 1.32 3 2 C3.99 1.67 4.98 1.34 6 1 C6 1.99 6 2.98 6 4 C5.01 4.495 5.01 4.495 4 5 C3.67 5.99 3.34 6.98 3 8 C0.69 7.34 -1.62 6.68 -4 6 C-4 5.34 -4 4.68 -4 4 C-3.01 3.67 -2.02 3.34 -1 3 C-0.67 2.01 -0.34 1.02 0 0 Z " fill="#040404" transform="translate(6,8)"/>
<path d="M0 0 C3 1 3 1 5 2 C5 2.66 5 3.32 5 4 C5.99 4 6.98 4 8 4 C7.67 4.99 7.34 5.98 7 7 C6.34 7 5.68 7 5 7 C5 8.32 5 9.64 5 11 C4.34 11 3.68 11 3 11 C2.87625 10.195625 2.7525 9.39125 2.625 8.5625 C2.315625 7.2940625 2.315625 7.2940625 2 6 C1.34 5.67 0.68 5.34 0 5 C0 3.35 0 1.7 0 0 Z " fill="#3F3F3F" transform="translate(3,41)"/>
<path d="M0 0 C0 3 0 3 -1.875 5 C-2.57625 5.66 -3.2775 6.32 -4 7 C-4.99 8.485 -4.99 8.485 -6 10 C-6 8.02 -6 6.04 -6 4 C-6.99 4 -7.98 4 -9 4 C-8.67 3.01 -8.34 2.02 -8 1 C-5.29120665 -0.35439668 -2.99066732 -0.06501451 0 0 Z " fill="#151515" transform="translate(29,0)"/>
<path d="M0 0 C1.60031344 3.20062687 0.03173691 5.72271806 -1 9 C-1.99 9 -2.98 9 -4 9 C-5.6875 7 -5.6875 7 -7 5 C-5.68 3.68 -4.36 2.36 -3 1 C-3 1.66 -3 2.32 -3 3 C-2.34 3 -1.68 3 -1 3 C-0.67 2.01 -0.34 1.02 0 0 Z " fill="#4A4A4A" transform="translate(52,39)"/>
<path d="M0 0 C2.39205401 1.59470267 4.04849745 2.96364951 6 5 C6.66 5.66 7.32 6.32 8 7 C5.36 7 2.72 7 0 7 C0 4.69 0 2.38 0 0 Z " fill="#010101" transform="translate(0,57)"/>
<path d="M0 0 C2.12563103 0.11376617 4.2505261 0.24135631 6.375 0.375 C8.15003906 0.47941406 8.15003906 0.47941406 9.9609375 0.5859375 C13 1 13 1 15 3 C10.38 3 5.76 3 1 3 C0.67 2.01 0.34 1.02 0 0 Z " fill="#2A2A2A" transform="translate(7,61)"/>
<path d="M0 0 C1.32 0 2.64 0 4 0 C3.42415568 2.38564077 2.77772405 4.66682784 2 7 C-0.0625 7.6875 -0.0625 7.6875 -2 8 C-2 6 -2 6 0 4 C0 2.68 0 1.36 0 0 Z " fill="#2E2E2E" transform="translate(60,45)"/>
<path d="M0 0 C1.32 0 2.64 0 4 0 C4 1.32 4 2.64 4 4 C4.66 4 5.32 4 6 4 C5.34 5.32 4.68 6.64 4 8 C3.566875 7.0409375 3.566875 7.0409375 3.125 6.0625 C2.17176549 3.84793921 2.17176549 3.84793921 0 3 C0 2.01 0 1.02 0 0 Z " fill="#2E2E2E" transform="translate(56,56)"/>
<path d="M0 0 C1.98 0 3.96 0 6 0 C5.75 2.875 5.75 2.875 5 6 C2.9375 7.375 2.9375 7.375 1 8 C1.66 6.02 2.32 4.04 3 2 C2.01 2 1.02 2 0 2 C0 1.34 0 0.68 0 0 Z " fill="#1C1C1C" transform="translate(44,50)"/>
<path d="M0 0 C0.66 0.33 1.32 0.66 2 1 C2 2.32 2 3.64 2 5 C2.99 5 3.98 5 5 5 C5 5.99 5 6.98 5 8 C3.68 7.67 2.36 7.34 1 7 C0.67 7.66 0.34 8.32 0 9 C-0.87890625 2.84765625 -0.87890625 2.84765625 -1 1 C-0.67 0.67 -0.34 0.34 0 0 Z " fill="#616161" transform="translate(35,23)"/>
<path d="M0 0 C1.32 0 2.64 0 4 0 C4 0.99 4 1.98 4 3 C3.01 3.495 3.01 3.495 2 4 C2.33 4.99 2.66 5.98 3 7 C2.01 7 1.02 7 0 7 C0 4.69 0 2.38 0 0 Z " fill="#181818" transform="translate(60,0)"/>
<path d="M0 0 C0.66 0 1.32 0 2 0 C2.33 1.32 2.66 2.64 3 4 C2.34 4 1.68 4 1 4 C1.33 5.32 1.66 6.64 2 8 C0.4375 6.8125 0.4375 6.8125 -1 5 C-0.6875 2.3125 -0.6875 2.3125 0 0 Z " fill="#292929" transform="translate(3,54)"/>
<path d="M0 0 C0 1.98 0 3.96 0 6 C-0.99 6.33 -1.98 6.66 -3 7 C-3.33 5.35 -3.66 3.7 -4 2 C-1 0 -1 0 0 0 Z " fill="#5A5A5A" transform="translate(53,29)"/>
<path d="M0 0 C1.98 0 3.96 0 6 0 C5.67 0.66 5.34 1.32 5 2 C4.34 2 3.68 2 3 2 C3 2.66 3 3.32 3 4 C1.35 4.33 -0.3 4.66 -2 5 C-1.34 3.35 -0.68 1.7 0 0 Z " fill="#4A4A4A" transform="translate(49,7)"/>
<path d="M0 0 C1.98 0.495 1.98 0.495 4 1 C4 2.32 4 3.64 4 5 C2.35 4.67 0.7 4.34 -1 4 C-0.67 2.68 -0.34 1.36 0 0 Z " fill="#2B2B2B" transform="translate(12,2)"/>
<path d="M0 0 C0.33 0.99 0.66 1.98 1 3 C-0.8125 4.5625 -0.8125 4.5625 -3 6 C-3.99 5.67 -4.98 5.34 -6 5 C-5.34 5 -4.68 5 -4 5 C-4 4.34 -4 3.68 -4 3 C-3.34 3 -2.68 3 -2 3 C-2 2.34 -2 1.68 -2 1 C-1.34 0.67 -0.68 0.34 0 0 Z " fill="#505050" transform="translate(43,35)"/>
</svg>
